<svg width="34" height="38" viewBox="0 0 34 38" fill="none" xmlns="http://www.w3.org/2000/svg">
<g clip-path="url(#clip0_3_732)">
<path d="M16.6964 10.1028C11.9578 10.1028 8.13571 13.9103 8.13571 18.6306C8.13571 23.3509 11.9578 27.1583 16.6964 27.1583C21.4349 27.1583 25.257 23.3509 25.257 18.6306C25.257 13.9103 21.4349 10.1028 16.6964 10.1028ZM16.6964 24.1747C13.6342 24.1747 11.1308 21.6884 11.1308 18.6306C11.1308 15.5728 13.6267 13.0864 16.6964 13.0864C19.766 13.0864 22.2619 15.5728 22.2619 18.6306C22.2619 21.6884 19.7585 24.1747 16.6964 24.1747ZM27.6039 9.754C27.6039 10.8599 26.7099 11.7431 25.6072 11.7431C24.4971 11.7431 23.6105 10.8524 23.6105 9.754C23.6105 8.65557 24.5045 7.76494 25.6072 7.76494C26.7099 7.76494 27.6039 8.65557 27.6039 9.754ZM33.2738 11.7728C33.1471 9.1083 32.5362 6.74814 30.5767 4.80361C28.6247 2.85908 26.2554 2.25049 23.5807 2.11689C20.824 1.96104 12.5613 1.96104 9.80463 2.11689C7.13734 2.24307 4.76807 2.85166 2.80858 4.79619C0.849089 6.74072 0.245596 9.10088 0.111486 11.7653C-0.0449747 14.5114 -0.0449747 22.7423 0.111486 25.4884C0.238146 28.1528 0.849089 30.513 2.80858 32.4575C4.76807 34.402 7.12989 35.0106 9.80463 35.1442C12.5613 35.3001 20.824 35.3001 23.5807 35.1442C26.2554 35.0181 28.6247 34.4095 30.5767 32.4575C32.5287 30.513 33.1397 28.1528 33.2738 25.4884C33.4303 22.7423 33.4303 14.5188 33.2738 11.7728ZM29.7124 28.4349C29.1313 29.8895 28.0063 31.0103 26.5385 31.5966C24.3406 32.4649 19.1252 32.2645 16.6964 32.2645C14.2675 32.2645 9.04467 32.4575 6.85422 31.5966C5.39391 31.0177 4.26888 29.897 3.68029 28.4349C2.80858 26.2454 3.00974 21.0501 3.00974 18.6306C3.00974 16.211 2.81603 11.0083 3.68029 8.82627C4.26143 7.37158 5.38646 6.25088 6.85422 5.66455C9.05212 4.79619 14.2675 4.99658 16.6964 4.99658C19.1252 4.99658 24.3481 4.80361 26.5385 5.66455C27.9988 6.24346 29.1239 7.36416 29.7124 8.82627C30.5842 11.0157 30.383 16.211 30.383 18.6306C30.383 21.0501 30.5842 26.2528 29.7124 28.4349Z" fill="white"/>
</g>
<defs>
<clipPath id="clip0_3_732">
<rect width="33.3784" height="38" fill="white"/>
</clipPath>
</defs>
</svg>
