<svg width="30" height="30" viewBox="0 0 30 30" fill="none" xmlns="http://www.w3.org/2000/svg">
<g clip-path="url(#clip0_3_736)">
<path d="M9.66211 1.44273C9.21094 0.352884 8.02148 -0.227194 6.88477 0.0833524L1.72852 1.4896C0.708984 1.77085 0 2.69663 0 3.75132C0 18.2474 11.7539 30.0013 26.25 30.0013C27.3047 30.0013 28.2305 29.2923 28.5117 28.2728L29.918 23.1166C30.2285 21.9798 29.6484 20.7904 28.5586 20.3392L22.9336 17.9955C21.9785 17.597 20.8711 17.8724 20.2207 18.6751L17.8535 21.5638C13.7285 19.6126 10.3887 16.2728 8.4375 12.1478L11.3262 9.78648C12.1289 9.13023 12.4043 8.02866 12.0059 7.07359L9.66211 1.44859V1.44273Z" fill="white"/>
</g>
<defs>
<clipPath id="clip0_3_736">
<rect width="30" height="30" fill="white"/>
</clipPath>
</defs>
</svg>
